<?xml version="1.0" encoding="UTF-8"?>
<svg width="646px" height="192px" viewBox="0 0 646 192" version="1.1" xmlns="http://www.w3.org/2000/svg" xmlns:xlink="http://www.w3.org/1999/xlink">
    <title>google-play-badge</title>
    <defs>
        <polygon id="path-1" points="0 0 645.94 0 645.94 191.407 0 191.407"></polygon>
    </defs>
    <g id="Page-1" stroke="none" stroke-width="1" fill="none" fill-rule="evenodd">
        <g id="google-play-badge">
            <g id="Group-4" transform="translate(0.000000, 0.000000)">
                <mask id="mask-2" fill="white">
                    <use xlink:href="#path-1"></use>
                </mask>
                <g id="Clip-2"></g>
                <path d="M622.014,191.406 L23.866,191.406 C10.707,191.406 -0.06,180.64 -0.06,167.48 L-0.06,23.925 C-0.06,10.765 10.707,-0.001 23.866,-0.001 L622.014,-0.001 C635.173,-0.001 645.94,10.765 645.94,23.925 L645.94,167.48 C645.94,180.64 635.173,191.406 622.014,191.406" id="Fill-1" fill="#0A0B09" mask="url(#mask-2)"></path>
                <path d="M622.014,0 L23.866,0 C10.707,0 -0.06,10.767 -0.06,23.926 L-0.06,167.481 C-0.06,180.641 10.707,191.407 23.866,191.407 L622.014,191.407 C635.173,191.407 645.94,180.641 645.94,167.481 L645.94,23.926 C645.94,10.767 635.173,0 622.014,0 M622.014,3.828 C633.097,3.828 642.112,12.843 642.112,23.926 L642.112,167.481 C642.112,178.564 633.097,187.579 622.014,187.579 L23.866,187.579 C12.783,187.579 3.768,178.564 3.768,167.481 L3.768,23.926 C3.768,12.843 12.783,3.828 23.866,3.828 L622.014,3.828" id="Fill-3" fill="#9D9E9A" mask="url(#mask-2)"></path>
            </g>
            <path d="M511.649,143.555 L520.578,143.555 L520.578,83.736 L511.649,83.736 L511.649,143.555 Z M592.073,105.283 L581.838,131.219 L581.531,131.219 L570.908,105.283 L561.29,105.283 L577.22,141.531 L568.138,161.696 L577.45,161.696 L602.002,105.283 L592.073,105.283 Z M541.436,136.76 C538.508,136.76 534.431,135.296 534.431,131.679 C534.431,127.061 539.508,125.295 543.896,125.295 C547.82,125.295 549.667,126.142 552.055,127.295 C551.361,132.837 546.59,136.76 541.436,136.76 L541.436,136.76 Z M542.513,103.977 C536.048,103.977 529.349,106.824 526.578,113.131 L534.507,116.443 C536.201,113.131 539.355,112.054 542.666,112.054 C547.284,112.054 551.978,114.825 552.055,119.749 L552.055,120.366 C550.437,119.443 546.973,118.06 542.743,118.06 C534.201,118.06 525.502,122.754 525.502,131.525 C525.502,139.531 532.507,144.685 540.355,144.685 C546.36,144.685 549.667,141.995 551.749,138.837 L552.055,138.837 L552.055,143.455 L560.673,143.455 L560.673,120.52 C560.673,109.901 552.749,103.977 542.513,103.977 L542.513,103.977 Z M487.33,112.567 L474.63,112.567 L474.63,92.057 L487.33,92.057 C494.006,92.057 497.795,97.589 497.795,102.312 C497.795,106.949 494.006,112.567 487.33,112.567 L487.33,112.567 Z M487.101,83.736 L465.706,83.736 L465.706,143.555 L474.63,143.555 L474.63,120.893 L487.101,120.893 C496.996,120.893 506.725,113.724 506.725,102.312 C506.725,90.899 496.996,83.736 487.101,83.736 L487.101,83.736 Z M370.433,136.77 C364.265,136.77 359.102,131.607 359.102,124.515 C359.102,117.347 364.265,112.102 370.433,112.102 C376.524,112.102 381.3,117.347 381.3,124.515 C381.3,131.607 376.524,136.77 370.433,136.77 L370.433,136.77 Z M380.683,108.633 L380.377,108.633 C378.372,106.245 374.519,104.082 369.663,104.082 C359.484,104.082 350.158,113.026 350.158,124.515 C350.158,135.923 359.484,144.79 369.663,144.79 C374.519,144.79 378.372,142.632 380.377,140.163 L380.683,140.163 L380.683,143.091 C380.683,150.881 376.524,155.04 369.816,155.04 C364.342,155.04 360.949,151.111 359.561,147.795 L351.776,151.035 C354.01,156.432 359.949,163.06 369.816,163.06 C380.3,163.06 389.167,156.892 389.167,141.861 L389.167,105.317 L380.683,105.317 L380.683,108.633 Z M395.33,143.555 L404.274,143.555 L404.274,83.731 L395.33,83.731 L395.33,143.555 Z M417.457,123.821 C417.227,115.954 423.549,111.949 428.094,111.949 C431.645,111.949 434.65,113.72 435.65,116.266 L417.457,123.821 Z M445.211,117.036 C443.512,112.485 438.349,104.082 427.788,104.082 C417.304,104.082 408.595,112.332 408.595,124.439 C408.595,135.846 417.227,144.79 428.788,144.79 C438.119,144.79 443.512,139.086 445.752,135.77 L438.813,131.143 C436.497,134.535 433.339,136.77 428.788,136.77 C424.242,136.77 421.003,134.688 418.921,130.607 L446.135,119.347 L445.211,117.036 Z M228.404,110.332 L228.404,118.964 L249.062,118.964 C248.444,123.821 246.827,127.367 244.362,129.831 C241.353,132.841 236.649,136.153 228.404,136.153 C215.68,136.153 205.736,125.903 205.736,113.179 C205.736,100.46 215.68,90.21 228.404,90.21 C235.266,90.21 240.276,92.904 243.975,96.373 L250.066,90.287 C244.898,85.353 238.041,81.573 228.404,81.573 C210.981,81.573 196.334,95.761 196.334,113.179 C196.334,130.607 210.981,144.79 228.404,144.79 C237.807,144.79 244.898,141.703 250.449,135.923 C256.153,130.219 257.928,122.204 257.928,115.725 C257.928,113.72 257.775,111.873 257.464,110.332 L228.404,110.332 Z M281.414,136.77 C275.251,136.77 269.93,131.683 269.93,124.439 C269.93,117.112 275.251,112.102 281.414,112.102 C287.582,112.102 292.903,117.112 292.903,124.439 C292.903,131.683 287.582,136.77 281.414,136.77 L281.414,136.77 Z M281.414,104.082 C270.159,104.082 260.986,112.643 260.986,124.439 C260.986,136.153 270.159,144.79 281.414,144.79 C292.669,144.79 301.847,136.153 301.847,124.439 C301.847,112.643 292.669,104.082 281.414,104.082 L281.414,104.082 Z M325.983,136.77 C319.815,136.77 314.494,131.683 314.494,124.439 C314.494,117.112 319.815,112.102 325.983,112.102 C332.152,112.102 337.468,117.112 337.468,124.439 C337.468,131.683 332.152,136.77 325.983,136.77 L325.983,136.77 Z M325.983,104.082 C314.729,104.082 305.555,112.643 305.555,124.439 C305.555,136.153 314.729,144.79 325.983,144.79 C337.238,144.79 346.411,136.153 346.411,124.439 C346.411,112.643 337.238,104.082 325.983,104.082 L325.983,104.082 Z" id="Fill-5" fill="#FFFFFE"></path>
            <path d="M99.076,92.947 L48.128,147.02 C48.133,147.029 48.133,147.044 48.137,147.053 C49.702,152.925 55.061,157.246 61.426,157.246 C63.971,157.246 66.359,156.557 68.407,155.351 L68.57,155.255 L125.916,122.166 L99.076,92.947" id="Fill-6" fill="#D84037"></path>
            <path d="M150.616,83.74 L150.569,83.706 L125.81,69.355 L97.917,94.176 L125.91,122.16 L150.535,107.953 C154.851,105.617 157.785,101.067 157.785,95.822 C157.785,90.606 154.894,86.08 150.616,83.74" id="Fill-7" fill="#F0B628"></path>
            <path d="M48.127,44.392 C47.821,45.521 47.658,46.708 47.658,47.933 L47.658,143.484 C47.658,144.709 47.821,145.895 48.132,147.02 L100.826,94.33 L48.127,44.392" id="Fill-8" fill="#5373AA"></path>
            <path d="M99.452,95.708 L125.818,69.346 L68.54,36.137 C66.458,34.888 64.027,34.17 61.429,34.17 C55.064,34.17 49.695,38.501 48.131,44.377 C48.131,44.382 48.126,44.387 48.126,44.391 L99.452,95.708" id="Fill-9" fill="#319F4F"></path>
            <path d="M201.884,61.346 C199.913,59.904 198.539,57.877 197.763,55.268 L202.092,53.52 C202.536,55.185 203.327,56.545 204.465,57.6 C205.602,58.654 206.977,59.182 208.587,59.182 C210.085,59.182 211.355,58.793 212.395,58.016 C213.436,57.239 213.957,56.17 213.957,54.81 C213.957,53.561 213.499,52.528 212.583,51.708 C211.667,50.89 210.085,50.092 207.837,49.315 L205.964,48.649 C203.937,47.927 202.252,46.921 200.905,45.63 C199.56,44.34 198.887,42.626 198.887,40.489 C198.887,39.019 199.282,37.658 200.073,36.409 C200.864,35.16 201.974,34.175 203.403,33.453 C204.833,32.732 206.449,32.371 208.254,32.371 C210.835,32.371 212.902,33.002 214.457,34.265 C216.011,35.529 217.065,36.95 217.621,38.532 L213.499,40.28 C213.222,39.281 212.639,38.422 211.751,37.699 C210.862,36.979 209.711,36.617 208.295,36.617 C206.935,36.617 205.783,36.979 204.84,37.699 C203.896,38.422 203.425,39.338 203.425,40.448 C203.425,41.475 203.848,42.328 204.694,43.008 C205.54,43.688 206.852,44.333 208.628,44.944 L210.543,45.61 C213.097,46.498 215.066,47.65 216.455,49.065 C217.843,50.481 218.536,52.368 218.536,54.727 C218.536,56.67 218.044,58.301 217.059,59.618 C216.073,60.937 214.81,61.915 213.27,62.554 C211.729,63.192 210.154,63.511 208.545,63.511 C206.074,63.511 203.854,62.789 201.884,61.346" id="Fill-10" fill="#FFFFFE"></path>
            <polyline id="Fill-11" fill="#FFFFFE" points="222.574 58.182 238.185 37.366 223.24 37.366 223.24 33.037 243.473 33.037 243.473 37.699 227.986 58.515 243.64 58.515 243.64 62.845 222.574 62.845 222.574 58.182"></polyline>
            <polyline id="Fill-12" fill="#FFFFFE" points="249.426 33.037 267.494 33.037 267.494 37.366 254.005 37.366 254.005 45.777 266.161 45.777 266.161 50.106 254.005 50.106 254.005 58.515 267.494 58.515 267.494 62.845 249.426 62.845 249.426 33.037"></polyline>
            <path d="M284.228,46.942 C285.672,46.942 286.886,46.484 287.872,45.568 C288.856,44.653 289.35,43.501 289.35,42.113 C289.35,40.836 288.898,39.719 287.996,38.761 C287.095,37.804 285.894,37.325 284.395,37.325 L278.483,37.325 L278.483,46.942 L284.228,46.942 Z M273.904,33.037 L284.353,33.037 C286.157,33.037 287.788,33.426 289.245,34.202 C290.702,34.98 291.853,36.063 292.701,37.45 C293.547,38.838 293.971,40.405 293.971,42.154 C293.971,44.153 293.325,45.922 292.035,47.462 C290.744,49.002 289.127,50.037 287.185,50.564 L287.143,50.772 L295.345,62.595 L295.345,62.845 L290.058,62.845 L282.105,51.147 L278.483,51.147 L278.483,62.845 L273.904,62.845 L273.904,33.037 L273.904,33.037 Z" id="Fill-13" fill="#FFFFFE"></path>
            <polyline id="Fill-14" fill="#FFFFFE" points="300.09 33.037 318.158 33.037 318.158 37.366 304.669 37.366 304.669 45.777 316.825 45.777 316.825 50.106 304.669 50.106 304.669 58.515 318.158 58.515 318.158 62.845 300.09 62.845 300.09 33.037"></polyline>
            <polyline id="Fill-15" fill="#FFFFFE" points="322.612 58.182 338.224 37.366 323.278 37.366 323.278 33.037 343.511 33.037 343.511 37.699 328.024 58.515 343.678 58.515 343.678 62.845 322.612 62.845 322.612 58.182"></polyline>
            <path d="M358.872,58.515 C362.259,58.515 364.889,57.578 366.762,55.705 C368.635,53.832 369.571,51.244 369.571,47.941 C369.571,44.639 368.635,42.05 366.762,40.177 C364.889,38.303 362.259,37.366 358.872,37.366 L354.043,37.366 L354.043,58.515 L358.872,58.515 Z M349.464,33.037 L358.997,33.037 C362.078,33.037 364.764,33.661 367.053,34.91 C369.343,36.159 371.104,37.915 372.34,40.177 C373.575,42.44 374.192,45.027 374.192,47.941 C374.192,50.855 373.575,53.444 372.34,55.705 C371.104,57.968 369.343,59.723 367.053,60.972 C364.764,62.221 362.078,62.845 358.997,62.845 L349.464,62.845 L349.464,33.037 L349.464,33.037 Z" id="Fill-16" fill="#FFFFFE"></path>
            <path d="M400.794,58.599 C402.236,58.599 403.395,58.161 404.269,57.287 C405.144,56.413 405.581,55.366 405.581,54.144 C405.581,52.923 405.13,51.868 404.228,50.98 C403.326,50.092 402.126,49.648 400.627,49.648 L393.716,49.648 L393.716,58.599 L400.794,58.599 Z M400.086,45.568 C401.474,45.568 402.584,45.145 403.416,44.298 C404.249,43.452 404.665,42.474 404.665,41.363 C404.665,40.253 404.255,39.289 403.437,38.47 C402.618,37.652 401.557,37.241 400.252,37.241 L393.716,37.241 L393.716,45.568 L400.086,45.568 Z M389.137,33.037 L400.294,33.037 C401.876,33.037 403.347,33.384 404.707,34.077 C406.066,34.772 407.143,35.722 407.934,36.93 C408.725,38.137 409.12,39.476 409.12,40.946 C409.12,42.418 408.752,43.701 408.017,44.798 C407.281,45.895 406.303,46.734 405.081,47.317 L405.081,47.525 C406.636,48.052 407.871,48.927 408.787,50.148 C409.702,51.369 410.16,52.812 410.16,54.477 C410.16,56.116 409.737,57.565 408.891,58.827 C408.044,60.091 406.906,61.075 405.477,61.783 C404.047,62.491 402.486,62.845 400.794,62.845 L389.137,62.845 L389.137,33.037 L389.137,33.037 Z" id="Fill-17" fill="#FFFFFE"></path>
            <polyline id="Fill-18" fill="#FFFFFE" points="416.196 33.037 434.265 33.037 434.265 37.366 420.775 37.366 420.775 45.777 432.932 45.777 432.932 50.106 420.775 50.106 420.775 58.515 434.265 58.515 434.265 62.845 416.196 62.845 416.196 33.037"></polyline>
            <path d="M440.217,61.929 C439.605,61.319 439.301,60.583 439.301,59.723 C439.301,58.863 439.605,58.127 440.217,57.516 C440.826,56.906 441.576,56.6 442.465,56.6 C443.352,56.6 444.095,56.899 444.691,57.495 C445.288,58.092 445.587,58.835 445.587,59.723 C445.587,60.583 445.288,61.319 444.691,61.929 C444.095,62.54 443.352,62.845 442.465,62.845 C441.576,62.845 440.826,62.54 440.217,61.929 Z M440.217,46.568 C439.605,45.957 439.301,45.221 439.301,44.361 C439.301,43.501 439.605,42.765 440.217,42.154 C440.826,41.544 441.576,41.238 442.465,41.238 C443.352,41.238 444.095,41.537 444.691,42.133 C445.288,42.731 445.587,43.473 445.587,44.361 C445.587,45.221 445.288,45.957 444.691,46.568 C444.095,47.178 443.352,47.483 442.465,47.483 C441.576,47.483 440.826,47.178 440.217,46.568 L440.217,46.568 Z" id="Fill-19" fill="#FFFFFE"></path>
        </g>
    </g>
</svg>